solid 
   facet normal 0.000000e+000 0.000000e+000 -1.000000e+000
      outer loop
         vertex 9.000000e+000 1.000000e+001 -3.200000e+001
         vertex 9.000000e+000 0.000000e+000 -3.200000e+001
         vertex 6.000000e+000 1.000000e+001 -3.200000e+001
      endloop
   endfacet
   facet normal 0.000000e+000 0.000000e+000 -1.000000e+000
      outer loop
         vertex 9.000000e+000 0.000000e+000 -3.200000e+001
         vertex 6.000000e+000 0.000000e+000 -3.200000e+001
         vertex 6.000000e+000 1.000000e+001 -3.200000e+001
      endloop
   endfacet
   facet normal 0.000000e+000 0.000000e+000 -1.000000e+000
      outer loop
         vertex 7.000000e+000 1.000000e+001 -1.200000e+001
         vertex 7.000000e+000 0.000000e+000 -1.200000e+001
         vertex -7.000000e+000 1.000000e+001 -1.200000e+001
      endloop
   endfacet
   facet normal 0.000000e+000 0.000000e+000 -1.000000e+000
      outer loop
         vertex -7.000000e+000 1.000000e+001 -1.200000e+001
         vertex 7.000000e+000 0.000000e+000 -1.200000e+001
         vertex -7.000000e+000 0.000000e+000 -1.200000e+001
      endloop
   endfacet
   facet normal 0.000000e+000 0.000000e+000 1.000000e+000
      outer loop
         vertex -7.000000e+000 1.000000e+001 -3.000000e+001
         vertex -7.000000e+000 0.000000e+000 -3.000000e+001
         vertex -6.000000e+000 1.000000e+001 -3.000000e+001
      endloop
   endfacet
   facet normal 0.000000e+000 0.000000e+000 1.000000e+000
      outer loop
         vertex -6.000000e+000 1.000000e+001 -3.000000e+001
         vertex -7.000000e+000 0.000000e+000 -3.000000e+001
         vertex -6.000000e+000 0.000000e+000 -3.000000e+001
      endloop
   endfacet
   facet normal -1.000000e+000 0.000000e+000 0.000000e+000
      outer loop
         vertex -9.000000e+000 1.000000e+001 -3.200000e+001
         vertex -9.000000e+000 0.000000e+000 -3.200000e+001
         vertex -9.000000e+000 1.000000e+001 0.000000e+000
      endloop
   endfacet
   facet normal -1.000000e+000 0.000000e+000 0.000000e+000
      outer loop
         vertex -9.000000e+000 1.000000e+001 0.000000e+000
         vertex -9.000000e+000 0.000000e+000 -3.200000e+001
         vertex -9.000000e+000 0.000000e+000 0.000000e+000
      endloop
   endfacet
   facet normal 0.000000e+000 0.000000e+000 -1.000000e+000
      outer loop
         vertex -6.000000e+000 1.000000e+001 -3.200000e+001
         vertex -6.000000e+000 0.000000e+000 -3.200000e+001
         vertex -9.000000e+000 1.000000e+001 -3.200000e+001
      endloop
   endfacet
   facet normal 0.000000e+000 0.000000e+000 -1.000000e+000
      outer loop
         vertex -6.000000e+000 0.000000e+000 -3.200000e+001
         vertex -9.000000e+000 0.000000e+000 -3.200000e+001
         vertex -9.000000e+000 1.000000e+001 -3.200000e+001
      endloop
   endfacet
   facet normal 1.000000e+000 -0.000000e+000 0.000000e+000
      outer loop
         vertex -7.000000e+000 1.000000e+001 -1.200000e+001
         vertex -7.000000e+000 0.000000e+000 -1.200000e+001
         vertex -7.000000e+000 1.000000e+001 -3.000000e+001
      endloop
   endfacet
   facet normal 1.000000e+000 0.000000e+000 0.000000e+000
      outer loop
         vertex -7.000000e+000 0.000000e+000 -1.200000e+001
         vertex -7.000000e+000 0.000000e+000 -3.000000e+001
         vertex -7.000000e+000 1.000000e+001 -3.000000e+001
      endloop
   endfacet
   facet normal 0.000000e+000 0.000000e+000 1.000000e+000
      outer loop
         vertex -9.000000e+000 1.000000e+001 0.000000e+000
         vertex -9.000000e+000 0.000000e+000 0.000000e+000
         vertex 9.000000e+000 1.000000e+001 0.000000e+000
      endloop
   endfacet
   facet normal 0.000000e+000 0.000000e+000 1.000000e+000
      outer loop
         vertex 9.000000e+000 1.000000e+001 0.000000e+000
         vertex -9.000000e+000 0.000000e+000 0.000000e+000
         vertex 9.000000e+000 0.000000e+000 0.000000e+000
      endloop
   endfacet
   facet normal 1.000000e+000 -0.000000e+000 0.000000e+000
      outer loop
         vertex 9.000000e+000 1.000000e+001 0.000000e+000
         vertex 9.000000e+000 0.000000e+000 0.000000e+000
         vertex 9.000000e+000 1.000000e+001 -3.200000e+001
      endloop
   endfacet
   facet normal 1.000000e+000 0.000000e+000 0.000000e+000
      outer loop
         vertex 9.000000e+000 0.000000e+000 0.000000e+000
         vertex 9.000000e+000 0.000000e+000 -3.200000e+001
         vertex 9.000000e+000 1.000000e+001 -3.200000e+001
      endloop
   endfacet
   facet normal -1.000000e+000 0.000000e+000 0.000000e+000
      outer loop
         vertex 7.000000e+000 1.000000e+001 -3.000000e+001
         vertex 7.000000e+000 0.000000e+000 -3.000000e+001
         vertex 7.000000e+000 1.000000e+001 -1.200000e+001
      endloop
   endfacet
   facet normal -1.000000e+000 0.000000e+000 0.000000e+000
      outer loop
         vertex 7.000000e+000 0.000000e+000 -3.000000e+001
         vertex 7.000000e+000 0.000000e+000 -1.200000e+001
         vertex 7.000000e+000 1.000000e+001 -1.200000e+001
      endloop
   endfacet
   facet normal 0.000000e+000 0.000000e+000 1.000000e+000
      outer loop
         vertex 6.000000e+000 1.000000e+001 -3.000000e+001
         vertex 6.000000e+000 0.000000e+000 -3.000000e+001
         vertex 7.000000e+000 1.000000e+001 -3.000000e+001
      endloop
   endfacet
   facet normal 0.000000e+000 0.000000e+000 1.000000e+000
      outer loop
         vertex 7.000000e+000 1.000000e+001 -3.000000e+001
         vertex 6.000000e+000 0.000000e+000 -3.000000e+001
         vertex 7.000000e+000 0.000000e+000 -3.000000e+001
      endloop
   endfacet
   facet normal -1.000000e+000 0.000000e+000 0.000000e+000
      outer loop
         vertex 6.000000e+000 1.000000e+001 -3.200000e+001
         vertex 6.000000e+000 0.000000e+000 -3.200000e+001
         vertex 6.000000e+000 1.000000e+001 -3.000000e+001
      endloop
   endfacet
   facet normal -1.000000e+000 0.000000e+000 0.000000e+000
      outer loop
         vertex 6.000000e+000 1.000000e+001 -3.000000e+001
         vertex 6.000000e+000 0.000000e+000 -3.200000e+001
         vertex 6.000000e+000 0.000000e+000 -3.000000e+001
      endloop
   endfacet
   facet normal 0.000000e+000 1.000000e+000 -0.000000e+000
      outer loop
         vertex -6.000000e+000 1.000000e+001 -3.000000e+001
         vertex -6.000000e+000 1.000000e+001 -3.200000e+001
         vertex -7.000000e+000 1.000000e+001 -3.000000e+001
      endloop
   endfacet
   facet normal 0.000000e+000 1.000000e+000 0.000000e+000
      outer loop
         vertex -6.000000e+000 1.000000e+001 -3.200000e+001
         vertex -9.000000e+000 1.000000e+001 -3.200000e+001
         vertex -7.000000e+000 1.000000e+001 -3.000000e+001
      endloop
   endfacet
   facet normal 0.000000e+000 1.000000e+000 0.000000e+000
      outer loop
         vertex -7.000000e+000 1.000000e+001 -3.000000e+001
         vertex -9.000000e+000 1.000000e+001 -3.200000e+001
         vertex -7.000000e+000 1.000000e+001 -1.200000e+001
      endloop
   endfacet
   facet normal 0.000000e+000 1.000000e+000 0.000000e+000
      outer loop
         vertex -9.000000e+000 1.000000e+001 -3.200000e+001
         vertex -9.000000e+000 1.000000e+001 0.000000e+000
         vertex -7.000000e+000 1.000000e+001 -1.200000e+001
      endloop
   endfacet
   facet normal 0.000000e+000 1.000000e+000 0.000000e+000
      outer loop
         vertex -7.000000e+000 1.000000e+001 -1.200000e+001
         vertex -9.000000e+000 1.000000e+001 0.000000e+000
         vertex 7.000000e+000 1.000000e+001 -1.200000e+001
      endloop
   endfacet
   facet normal 0.000000e+000 1.000000e+000 0.000000e+000
      outer loop
         vertex -9.000000e+000 1.000000e+001 0.000000e+000
         vertex 9.000000e+000 1.000000e+001 0.000000e+000
         vertex 7.000000e+000 1.000000e+001 -1.200000e+001
      endloop
   endfacet
   facet normal 0.000000e+000 1.000000e+000 0.000000e+000
      outer loop
         vertex 7.000000e+000 1.000000e+001 -1.200000e+001
         vertex 9.000000e+000 1.000000e+001 0.000000e+000
         vertex 7.000000e+000 1.000000e+001 -3.000000e+001
      endloop
   endfacet
   facet normal 0.000000e+000 1.000000e+000 -0.000000e+000
      outer loop
         vertex 9.000000e+000 1.000000e+001 0.000000e+000
         vertex 9.000000e+000 1.000000e+001 -3.200000e+001
         vertex 7.000000e+000 1.000000e+001 -3.000000e+001
      endloop
   endfacet
   facet normal 0.000000e+000 1.000000e+000 0.000000e+000
      outer loop
         vertex 7.000000e+000 1.000000e+001 -3.000000e+001
         vertex 9.000000e+000 1.000000e+001 -3.200000e+001
         vertex 6.000000e+000 1.000000e+001 -3.000000e+001
      endloop
   endfacet
   facet normal 0.000000e+000 1.000000e+000 0.000000e+000
      outer loop
         vertex 9.000000e+000 1.000000e+001 -3.200000e+001
         vertex 6.000000e+000 1.000000e+001 -3.200000e+001
         vertex 6.000000e+000 1.000000e+001 -3.000000e+001
      endloop
   endfacet
   facet normal 1.000000e+000 -0.000000e+000 0.000000e+000
      outer loop
         vertex -6.000000e+000 1.000000e+001 -3.000000e+001
         vertex -6.000000e+000 0.000000e+000 -3.000000e+001
         vertex -6.000000e+000 1.000000e+001 -3.200000e+001
      endloop
   endfacet
   facet normal 1.000000e+000 0.000000e+000 0.000000e+000
      outer loop
         vertex -6.000000e+000 1.000000e+001 -3.200000e+001
         vertex -6.000000e+000 0.000000e+000 -3.000000e+001
         vertex -6.000000e+000 0.000000e+000 -3.200000e+001
      endloop
   endfacet
   facet normal 0.000000e+000 -1.000000e+000 -0.000000e+000
      outer loop
         vertex -6.000000e+000 0.000000e+000 -3.200000e+001
         vertex -6.000000e+000 0.000000e+000 -3.000000e+001
         vertex -9.000000e+000 0.000000e+000 -3.200000e+001
      endloop
   endfacet
   facet normal -0.000000e+000 -1.000000e+000 0.000000e+000
      outer loop
         vertex -9.000000e+000 0.000000e+000 -3.200000e+001
         vertex -7.000000e+000 0.000000e+000 -3.000000e+001
         vertex -9.000000e+000 0.000000e+000 0.000000e+000
      endloop
   endfacet
   facet normal -0.000000e+000 -1.000000e+000 -0.000000e+000
      outer loop
         vertex -7.000000e+000 0.000000e+000 -3.000000e+001
         vertex -7.000000e+000 0.000000e+000 -1.200000e+001
         vertex -9.000000e+000 0.000000e+000 0.000000e+000
      endloop
   endfacet
   facet normal 0.000000e+000 -1.000000e+000 0.000000e+000
      outer loop
         vertex -9.000000e+000 0.000000e+000 0.000000e+000
         vertex -7.000000e+000 0.000000e+000 -1.200000e+001
         vertex 9.000000e+000 0.000000e+000 0.000000e+000
      endloop
   endfacet
   facet normal 0.000000e+000 -1.000000e+000 0.000000e+000
      outer loop
         vertex -7.000000e+000 0.000000e+000 -1.200000e+001
         vertex 7.000000e+000 0.000000e+000 -1.200000e+001
         vertex 9.000000e+000 0.000000e+000 0.000000e+000
      endloop
   endfacet
   facet normal 0.000000e+000 -1.000000e+000 0.000000e+000
      outer loop
         vertex 9.000000e+000 0.000000e+000 0.000000e+000
         vertex 7.000000e+000 0.000000e+000 -1.200000e+001
         vertex 9.000000e+000 0.000000e+000 -3.200000e+001
      endloop
   endfacet
   facet normal 0.000000e+000 -1.000000e+000 0.000000e+000
      outer loop
         vertex 7.000000e+000 0.000000e+000 -1.200000e+001
         vertex 7.000000e+000 0.000000e+000 -3.000000e+001
         vertex 9.000000e+000 0.000000e+000 -3.200000e+001
      endloop
   endfacet
   facet normal 0.000000e+000 -1.000000e+000 -0.000000e+000
      outer loop
         vertex 9.000000e+000 0.000000e+000 -3.200000e+001
         vertex 7.000000e+000 0.000000e+000 -3.000000e+001
         vertex 6.000000e+000 0.000000e+000 -3.200000e+001
      endloop
   endfacet
   facet normal 0.000000e+000 -1.000000e+000 0.000000e+000
      outer loop
         vertex 7.000000e+000 0.000000e+000 -3.000000e+001
         vertex 6.000000e+000 0.000000e+000 -3.000000e+001
         vertex 6.000000e+000 0.000000e+000 -3.200000e+001
      endloop
   endfacet
   facet normal 0.000000e+000 -1.000000e+000 0.000000e+000
      outer loop
         vertex -7.000000e+000 0.000000e+000 -3.000000e+001
         vertex -9.000000e+000 0.000000e+000 -3.200000e+001
         vertex -6.000000e+000 0.000000e+000 -3.000000e+001
      endloop
   endfacet
endsolid
